<svg version="1.1" id="Layer_1" xmlns="http://www.w3.org/2000/svg" x="0px" y="0px" viewBox="0 0 244 200">
<path fill="#000000" opacity="1.000000" stroke="none" 
	d="
M1.000000,70.000000 
	C1.000000,46.666668 1.000000,23.833336 1.000000,1.000003 
	C82.333328,1.000002 163.666656,1.000002 245.000000,1.000001 
	C245.000000,67.666656 245.000000,134.333313 245.000000,200.999969 
	C163.666687,200.999985 82.333366,200.999985 1.000023,201.000000 
	C1.000000,157.500000 1.000000,114.000000 1.000000,70.000000 
M92.363609,139.902145 
	C91.869446,140.248993 91.375290,140.595856 90.302330,141.240845 
	C88.842773,142.106644 87.383224,142.972443 85.206703,143.946075 
	C81.507904,146.577667 77.809105,149.209244 74.313293,152.720459 
	C96.088608,152.808990 117.863907,152.904190 139.639313,152.945633 
	C140.155899,152.946625 140.673630,152.345840 141.714752,151.636749 
	C139.754135,147.420151 137.793533,143.203568 135.940247,138.251907 
	C134.476746,134.827347 133.044815,131.388870 131.542053,127.981628 
	C129.491150,123.331596 125.825165,122.314888 121.368073,125.099785 
	C120.259064,125.792717 119.134445,126.460678 117.314735,127.253174 
	C111.170525,130.456390 105.026314,133.659607 98.938538,136.942490 
	C98.938538,136.942490 99.015877,136.883057 98.526726,136.935715 
	C98.526726,136.935715 98.057541,137.083755 97.553802,137.083115 
	C97.348747,137.334778 97.143684,137.586456 96.419296,138.106003 
	C95.934669,138.415085 95.450043,138.724182 94.347778,138.938400 
	C93.850235,139.256149 93.352692,139.573898 92.924561,139.979584 
	C92.924561,139.979584 93.012459,139.910126 92.363609,139.902145 
M70.199440,80.087692 
	C68.132179,80.460045 66.064911,80.832405 63.127441,81.102791 
	C61.085423,81.143005 59.043400,81.183228 56.167419,81.113571 
	C54.108963,81.730789 52.050510,82.348007 49.244530,83.414299 
	C49.162571,104.319794 49.070999,125.225273 49.041580,146.130844 
	C49.040623,146.810669 49.673828,147.491394 50.269665,148.816620 
	C53.209244,153.594391 56.426529,154.364273 61.909328,151.206589 
	C69.996536,146.548935 77.976936,141.705811 86.661430,136.752914 
	C94.212807,132.563339 101.764183,128.373749 109.875549,123.802818 
	C112.813232,122.315910 115.806000,120.927299 118.675911,119.319412 
	C123.166130,116.803741 124.208405,113.547844 122.059418,109.025421 
	C121.221352,107.261765 120.185822,105.591949 119.066658,103.327370 
	C118.777809,102.861328 118.488953,102.395287 118.024765,101.200729 
	C116.380302,97.410103 114.735840,93.619484 112.985580,89.139168 
	C111.378830,86.662407 109.772087,84.185638 107.836830,81.218300 
	C107.266411,81.134987 106.695999,81.051682 105.679047,80.204086 
	C94.806557,80.170471 83.934059,80.136856 72.373314,80.066093 
	C71.915329,80.104309 71.457352,80.142532 70.199440,80.087692 
M54.258152,14.022356 
	C52.839397,15.605630 51.420643,17.188904 49.269360,19.287994 
	C49.179691,35.561768 49.077785,51.835514 49.042892,68.109406 
	C49.041420,68.795425 49.663002,69.482796 49.961178,70.600830 
	C49.961178,70.600830 50.044781,71.025246 50.526276,71.730080 
	C61.000134,71.787392 71.473991,71.844704 82.482048,71.919975 
	C82.657990,71.891922 82.833939,71.863876 83.808136,71.941200 
	C84.878517,71.905869 85.948891,71.870544 87.930168,71.937149 
	C90.258911,71.957329 92.588249,72.021324 94.916275,71.989311 
	C101.372597,71.900505 104.892982,67.557693 103.240768,61.358009 
	C101.251083,53.891983 98.964516,46.505077 96.632469,38.342884 
	C95.387711,34.214275 94.142952,30.085667 92.994690,25.284742 
	C92.686623,24.488104 92.378555,23.691465 92.045914,22.977837 
	C92.045914,22.977837 92.128967,23.002275 92.081184,22.217758 
	C90.729912,19.473475 89.378639,16.729191 87.575371,13.242144 
	C77.377686,13.169864 67.180031,13.079092 56.982273,13.066888 
	C56.302059,13.066072 55.621132,13.661265 54.258152,14.022356 
M108.225929,46.688538 
	C111.133797,50.772823 114.402847,50.807037 121.774185,46.950241 
	C127.195145,44.662079 132.616104,42.373913 138.531845,40.007759 
	C138.696411,39.979626 138.860992,39.951488 139.729111,40.041248 
	C141.194687,39.445843 142.660278,38.850441 144.856644,38.068352 
	C151.572418,35.314323 158.288177,32.560295 165.722076,29.672298 
	C171.560303,27.424025 177.479004,25.351704 183.157425,22.754072 
	C184.102539,22.321720 184.837372,19.079857 184.197632,18.054707 
	C183.093002,16.284603 180.834061,15.234842 178.586563,13.161158 
	C152.739990,13.161348 126.893425,13.161539 100.357033,13.297430 
	C100.505081,15.559397 100.653130,17.821363 100.852234,20.819839 
	C101.187668,21.928280 101.523102,23.036722 101.890533,24.144423 
	C101.890533,24.144423 101.863113,24.168959 101.949806,24.938545 
	C103.579865,29.651054 105.209915,34.363564 106.919174,39.817673 
	C107.295959,41.218571 107.672745,42.619473 107.942032,44.668404 
	C107.980164,45.102989 108.018303,45.537575 108.225929,46.688538 
M184.945496,48.198292 
	C184.960999,43.380169 184.980347,38.562054 184.990829,33.743919 
	C184.999161,29.916876 183.051178,29.166241 179.837402,30.523890 
	C177.888489,31.347195 175.969864,32.242222 173.332794,33.260548 
	C170.309540,34.505611 167.263031,35.697495 164.268219,37.007568 
	C159.102249,39.267391 153.968414,41.600700 148.201630,43.983387 
	C147.483673,44.375065 146.765732,44.766743 145.448181,45.072243 
	C144.945358,45.331142 144.442535,45.590046 143.197754,45.984547 
	C138.767258,47.949833 134.336777,49.915119 129.944672,51.857288 
	C129.944672,51.857288 129.895187,51.856224 129.339081,51.986301 
	C128.874802,52.270973 128.410538,52.555645 127.179749,52.893158 
	C124.926865,53.837345 122.728745,54.953140 120.410606,55.692860 
	C114.002052,57.737850 112.555016,60.680107 114.975700,67.756912 
	C118.606842,76.599907 122.237984,85.442902 126.259819,94.884682 
	C126.635826,95.944702 127.041695,96.995201 127.383194,98.066231 
	C130.555969,108.016830 133.256866,109.531136 143.135086,106.482330 
	C145.567627,105.731552 147.802597,104.340721 150.871964,103.208160 
	C152.582809,102.430382 154.293640,101.652603 156.663406,100.759048 
	C158.168472,99.864578 159.673553,98.970100 161.913223,97.999451 
	C165.326401,96.352325 168.739578,94.705200 172.583862,92.972122 
	C172.583862,92.972122 173.001984,92.836380 173.701035,92.903587 
	C174.803864,92.562798 175.906708,92.222008 177.687195,91.751335 
	C179.798355,90.545029 181.909515,89.338722 184.746948,87.636398 
	C184.775482,74.806549 184.804016,61.976700 184.945496,48.198292 
M151.276001,152.789734 
	C159.408112,152.869141 167.540344,153.002090 175.672195,152.980164 
	C177.192490,152.976059 178.711105,152.351501 180.870163,152.049576 
	C181.919876,151.087463 182.969574,150.125366 184.711731,148.706680 
	C185.136459,145.975662 185.893005,143.248901 185.927979,140.512894 
	C186.072647,129.195435 186.132065,117.872635 185.915070,106.557693 
	C185.858429,103.604439 184.691467,100.672470 183.639481,97.112961 
	C176.409393,100.040375 169.179291,102.967796 161.268143,106.223106 
	C153.771835,109.395775 146.270920,112.557785 138.794342,115.776276 
	C138.462006,115.919334 138.351013,116.576584 138.025635,117.819893 
	C141.067352,126.539238 144.109070,135.258575 147.034363,144.698151 
	C148.293945,147.139908 149.553528,149.581680 151.276001,152.789734 
z"/>
<path fill="#3C5732" opacity="1.000000" stroke="none" 
	d="
M49.992054,82.965225 
	C52.050510,82.348007 54.108963,81.730789 56.577061,81.545708 
	C56.219696,83.916580 55.881615,86.224571 54.596542,87.717308 
	C51.907181,90.841248 51.745483,92.926697 55.624226,95.141792 
	C60.259453,97.788887 64.534859,101.065659 69.168030,103.716820 
	C80.296349,110.084595 91.529938,116.269272 102.765221,122.447502 
	C103.671120,122.945641 104.915695,122.827896 106.342850,123.088303 
	C107.560394,123.514893 108.437981,123.849533 109.315559,124.184174 
	C101.764183,128.373749 94.212807,132.563339 86.239334,136.511032 
	C82.916557,133.056564 80.180222,129.670914 77.050705,126.699333 
	C75.302841,125.039696 72.977379,123.917801 70.781387,122.813782 
	C63.958408,119.383575 57.072895,116.077766 50.155182,112.331467 
	C50.063164,102.281235 50.027611,92.623230 49.992054,82.965225 
z"/>
<path fill="#436234" opacity="1.000000" stroke="none" 
	d="
M50.044781,71.025246 
	C50.044781,71.025246 49.961178,70.600830 50.008083,69.906433 
	C50.109707,53.147087 50.164429,37.082142 50.631500,21.012220 
	C52.696281,21.005638 54.348709,21.004030 56.106575,21.330215 
	C59.071392,24.984299 62.090046,28.190723 64.722145,31.688070 
	C66.014565,33.405350 67.587120,35.806000 67.320808,37.650146 
	C66.046509,46.474388 70.104645,53.562790 74.105469,60.671459 
	C76.108253,64.230034 78.672386,67.472672 80.515991,70.883987 
	C70.047829,70.948257 60.046307,70.986755 50.044781,71.025246 
z"/>
<path fill="#435D31" opacity="1.000000" stroke="none" 
	d="
M109.595551,123.993500 
	C108.437981,123.849533 107.560394,123.514893 106.238571,122.756790 
	C103.349739,119.779312 101.161919,116.894241 98.398682,114.751053 
	C94.530579,111.750893 90.155663,109.414291 86.143463,106.586777 
	C82.515877,104.030334 79.038506,101.252235 75.590164,98.454453 
	C74.335396,97.436401 72.460342,96.119316 72.404564,94.870071 
	C72.155289,89.287498 69.150490,85.894066 64.620300,83.348007 
	C64.274704,83.153770 64.204865,82.468895 64.443558,82.010422 
	C66.919777,82.004967 68.959282,82.001183 71.271057,81.900772 
	C72.040298,81.513733 72.537277,81.223312 73.446129,80.972328 
	C75.234291,81.081161 76.610573,81.150543 78.085388,81.545334 
	C80.015106,87.055649 84.120979,89.756851 89.055801,91.101692 
	C94.457306,92.573738 98.934334,95.040466 102.745804,99.303719 
	C107.080696,104.152382 112.609482,106.448471 119.240234,103.879387 
	C120.185822,105.591949 121.221352,107.261765 122.059418,109.025421 
	C124.208405,113.547844 123.166130,116.803741 118.675911,119.319412 
	C115.806000,120.927299 112.813232,122.315910 109.595551,123.993500 
z"/>
<path fill="#375332" opacity="1.000000" stroke="none" 
	d="
M50.211647,112.723686 
	C57.072895,116.077766 63.958408,119.383575 70.781387,122.813782 
	C72.977379,123.917801 75.302841,125.039696 77.050705,126.699333 
	C80.180222,129.670914 82.916557,133.056564 85.910034,136.605408 
	C77.976936,141.705811 69.996536,146.548935 61.909328,151.206589 
	C56.426529,154.364273 53.209244,153.594391 50.185715,148.016006 
	C50.138390,135.718155 50.175018,124.220924 50.211647,112.723686 
z"/>
<path fill="#B18A51" opacity="1.000000" stroke="none" 
	d="
M147.150787,143.977921 
	C144.109070,135.258575 141.067352,126.539238 138.353333,117.593231 
	C141.845474,119.224159 144.952286,121.191025 148.194626,122.900909 
	C150.353653,124.039497 153.296341,124.240501 154.859253,125.856430 
	C159.241592,130.387436 163.950760,130.304535 169.488052,128.716751 
	C174.183777,127.370262 179.125320,126.881058 183.972809,126.479668 
	C183.998123,134.352310 184.008713,141.757782 184.019287,149.163254 
	C182.969574,150.125366 181.919876,151.087463 180.101944,151.997238 
	C177.545227,151.869354 175.756729,151.793823 173.961334,151.341736 
	C172.490433,149.316010 171.214523,147.423019 169.499161,146.099655 
	C168.267883,145.149750 166.141037,145.340576 164.944839,144.368759 
	C159.039078,139.570663 153.157211,140.524796 147.150787,143.977921 
z"/>
<path fill="#476533" opacity="1.000000" stroke="none" 
	d="
M80.982635,70.858200 
	C78.672386,67.472672 76.108253,64.230034 74.105469,60.671459 
	C70.104645,53.562790 66.046509,46.474388 67.320808,37.650146 
	C67.587120,35.806000 66.014565,33.405350 64.722145,31.688070 
	C62.090046,28.190723 59.071392,24.984299 56.359482,21.088608 
	C57.337200,18.351788 58.167454,16.184364 59.460770,13.970501 
	C64.280098,13.947360 68.636360,13.970661 73.226936,14.155220 
	C73.977417,14.552326 74.493584,14.788177 74.961655,15.412563 
	C74.643936,19.631231 72.798073,24.397635 74.409470,27.110487 
	C78.709137,34.349167 81.063896,41.584816 80.343330,49.976795 
	C80.210175,51.527611 81.807991,53.156754 82.254456,54.843052 
	C83.054970,57.866589 83.951004,60.941093 84.120262,64.031914 
	C84.261192,66.605232 83.417473,69.232468 83.009880,71.835823 
	C82.833939,71.863876 82.657990,71.891922 82.066414,71.726791 
	C81.439728,71.296928 81.217010,71.071793 80.982635,70.858200 
z"/>
<path fill="#4D6932" opacity="1.000000" stroke="none" 
	d="
M83.409012,71.888512 
	C83.417473,69.232468 84.261192,66.605232 84.120262,64.031914 
	C83.951004,60.941093 83.054970,57.866589 82.254456,54.843052 
	C81.807991,53.156754 80.210175,51.527611 80.343330,49.976795 
	C81.063896,41.584816 78.709137,34.349167 74.409470,27.110487 
	C72.798073,24.397635 74.643936,19.631231 75.360283,15.406618 
	C76.870941,15.008506 77.934860,15.004873 79.045288,15.371925 
	C79.565025,19.321404 81.861229,20.572626 85.204285,21.013714 
	C87.558975,21.324396 89.823944,22.315163 92.128967,23.002275 
	C92.128967,23.002275 92.045914,22.977837 92.077568,23.258751 
	C92.372208,24.345465 92.635201,25.151262 92.898193,25.957062 
	C94.142952,30.085667 95.387711,34.214275 96.497955,38.949287 
	C91.277367,45.641327 87.217369,51.797329 92.621361,59.980785 
	C93.269478,60.962254 91.733566,63.595989 90.886162,65.303169 
	C89.764214,67.563416 88.323174,69.665283 87.019272,71.835213 
	C85.948891,71.870544 84.878517,71.905869 83.409012,71.888512 
z"/>
<path fill="#B88F53" opacity="1.000000" stroke="none" 
	d="
M183.958099,126.012497 
	C179.125320,126.881058 174.183777,127.370262 169.488052,128.716751 
	C163.950760,130.304535 159.241592,130.387436 154.859253,125.856430 
	C153.296341,124.240501 150.353653,124.039497 148.194626,122.900909 
	C144.952286,121.191025 141.845474,119.224159 138.408997,117.180450 
	C138.351013,116.576584 138.462006,115.919334 138.794342,115.776276 
	C146.270920,112.557785 153.771835,109.395775 161.800415,106.342949 
	C168.278748,112.552551 175.201828,116.643486 183.950912,117.471664 
	C183.961487,120.617142 183.959793,123.314827 183.958099,126.012497 
z"/>
<path fill="#658037" opacity="1.000000" stroke="none" 
	d="
M106.839973,39.076073 
	C105.209915,34.363564 103.579865,29.651054 102.205719,24.635067 
	C104.332832,23.959053 106.895981,24.238838 107.962433,23.107630 
	C114.657318,16.006168 121.144653,17.014570 126.435944,25.530663 
	C129.687897,30.764530 134.129593,35.259174 138.037064,40.085747 
	C132.616104,42.373913 127.195145,44.662079 121.343842,46.530869 
	C118.769669,39.603176 117.298782,38.867878 106.839973,39.076073 
z"/>
<path fill="#527137" opacity="1.000000" stroke="none" 
	d="
M125.869125,94.285904 
	C122.237984,85.442902 118.606842,76.599907 115.350998,67.526382 
	C119.780922,69.018639 124.010124,70.423271 127.853050,72.531898 
	C135.357254,76.649483 142.495255,81.448006 150.074387,85.410866 
	C155.401871,88.196411 155.906921,88.542862 153.847458,94.174339 
	C153.549393,94.989403 153.932755,96.053658 154.118271,97.291382 
	C154.825333,98.678383 155.414902,99.776604 156.004486,100.874832 
	C154.293640,101.652603 152.582809,102.430382 150.304474,102.935791 
	C147.812622,100.424782 145.734253,98.298790 143.996826,95.923424 
	C140.655365,91.355049 136.156982,89.788841 130.692429,89.977509 
	C127.708008,90.080551 126.045372,91.244194 125.869125,94.285904 
z"/>
<path fill="#9C7C4A" opacity="1.000000" stroke="none" 
	d="
M98.882111,136.862823 
	C105.026314,133.659607 111.170525,130.456390 117.687897,127.553192 
	C120.668236,130.848770 123.112061,134.009689 125.929321,136.792572 
	C128.651642,139.481674 132.022614,140.558456 135.832916,138.986969 
	C137.793533,143.203568 139.754135,147.420151 140.973267,151.789734 
	C131.484650,151.901962 122.737511,151.861221 113.971977,151.440674 
	C113.157455,141.840408 105.312714,140.102188 98.882111,136.862823 
z"/>
<path fill="#3E5930" opacity="1.000000" stroke="none" 
	d="
M64.006844,82.012085 
	C64.204865,82.468895 64.274704,83.153770 64.620300,83.348007 
	C69.150490,85.894066 72.155289,89.287498 72.404564,94.870071 
	C72.460342,96.119316 74.335396,97.436401 75.590164,98.454453 
	C79.038506,101.252235 82.515877,104.030334 86.143463,106.586777 
	C90.155663,109.414291 94.530579,111.750893 98.398682,114.751053 
	C101.161919,116.894241 103.349739,119.779312 105.898605,122.664841 
	C104.915695,122.827896 103.671120,122.945641 102.765221,122.447502 
	C91.529938,116.269272 80.296349,110.084595 69.168030,103.716820 
	C64.534859,101.065659 60.259453,97.788887 55.624226,95.141792 
	C51.745483,92.926697 51.907181,90.841248 54.596542,87.717308 
	C55.881615,86.224571 56.219696,83.916580 56.994041,81.600647 
	C59.043400,81.183228 61.085423,81.143005 63.564449,81.355591 
	C64.001457,81.608398 64.006844,82.012085 64.006844,82.012085 
z"/>
<path fill="#547236" opacity="1.000000" stroke="none" 
	d="
M154.000793,97.002602 
	C153.932755,96.053658 153.549393,94.989403 153.847458,94.174339 
	C155.906921,88.542862 155.401871,88.196411 150.074387,85.410866 
	C142.495255,81.448006 135.357254,76.649483 127.853050,72.531898 
	C124.010124,70.423271 119.780922,69.018639 115.395966,67.147430 
	C112.555016,60.680107 114.002052,57.737850 120.410606,55.692860 
	C122.728745,54.953140 124.926865,53.837345 127.696526,53.143158 
	C128.809067,53.928650 129.404846,54.464138 130.000305,54.999809 
	C130.000000,55.000000 130.000610,54.999660 130.111374,55.347172 
	C131.145706,58.666733 132.727936,61.614384 132.839127,64.616516 
	C133.007614,69.165710 134.912354,72.053703 138.622543,74.324196 
	C144.286728,77.790459 150.330261,80.888916 155.267380,85.220947 
	C160.303589,89.639938 165.954636,91.683243 172.152756,93.058075 
	C168.739578,94.705200 165.326401,96.352325 161.222504,97.903076 
	C158.354797,97.538666 156.177780,97.270638 154.000793,97.002602 
z"/>
<path fill="#668134" opacity="1.000000" stroke="none" 
	d="
M143.939713,45.848949 
	C144.442535,45.590046 144.945358,45.331142 145.930984,45.384880 
	C148.784668,50.001541 152.352539,52.636494 157.110062,53.973049 
	C158.931412,54.484734 161.110825,55.530350 162.066208,57.015224 
	C167.302475,65.153465 175.121262,67.174294 184.051331,67.470779 
	C184.058105,72.955605 184.040833,77.974709 183.627075,82.975403 
	C179.481903,81.382210 175.156021,80.529755 172.100235,78.087868 
	C164.908417,72.340843 158.494858,65.629829 151.429428,59.711109 
	C146.960953,55.967850 143.938522,51.824375 143.939713,45.848949 
z"/>
<path fill="#5F7B35" opacity="1.000000" stroke="none" 
	d="
M143.568726,45.916748 
	C143.938522,51.824375 146.960953,55.967850 151.429428,59.711109 
	C158.494858,65.629829 164.908417,72.340843 172.100235,78.087868 
	C175.156021,80.529755 179.481903,81.382210 183.658234,83.403076 
	C184.064178,85.276901 184.042435,86.704659 184.020691,88.132416 
	C181.909515,89.338722 179.798355,90.545029 177.341705,91.414459 
	C177.360779,87.354790 175.528610,85.604790 172.155579,84.039391 
	C167.741776,81.990959 163.789627,78.921623 159.711777,76.182899 
	C155.731491,73.509697 151.680496,70.899178 147.973343,67.877396 
	C145.642242,65.977264 142.677872,63.635509 142.106888,61.029686 
	C140.573120,54.029896 136.147827,52.017357 129.906281,51.880402 
	C134.336777,49.915119 138.767258,47.949833 143.568726,45.916748 
z"/>
<path fill="#81973A" opacity="1.000000" stroke="none" 
	d="
M179.059433,13.882852 
	C180.834061,15.234842 183.093002,16.284603 184.197632,18.054707 
	C184.837372,19.079857 184.102539,22.321720 183.157425,22.754072 
	C177.479004,25.351704 171.560303,27.424025 165.223221,29.447533 
	C161.147186,25.925051 157.494720,22.703888 154.027115,19.294722 
	C152.480011,17.773680 151.304581,15.874591 150.432190,14.115012 
	C160.289078,14.016247 169.674255,13.949550 179.059433,13.882852 
z"/>
<path fill="#748B36" opacity="1.000000" stroke="none" 
	d="
M148.821106,43.903175 
	C153.968414,41.600700 159.102249,39.267391 164.268219,37.007568 
	C167.263031,35.697495 170.309540,34.505611 173.797287,33.509499 
	C174.338257,34.734367 174.612442,35.742222 174.460709,36.681267 
	C172.902466,46.325905 174.651855,48.580196 184.192688,49.556274 
	C184.099792,53.005009 184.041992,56.010963 183.614273,58.969208 
	C177.930496,55.996937 172.648071,53.012981 167.287872,50.176018 
	C165.033173,48.982681 162.504669,47.060665 160.292694,47.293610 
	C155.773712,47.769516 152.189621,46.576290 148.821106,43.903175 
z"/>
<path fill="#688336" opacity="1.000000" stroke="none" 
	d="
M138.284454,40.046753 
	C134.129593,35.259174 129.687897,30.764530 126.435944,25.530663 
	C121.144653,17.014570 114.657318,16.006168 107.962433,23.107630 
	C106.895981,24.238838 104.332832,23.959053 102.162369,24.250275 
	C101.863113,24.168959 101.890533,24.144423 101.875595,23.782803 
	C101.507500,22.308567 101.154335,21.195950 100.801178,20.083332 
	C100.653130,17.821363 100.505081,15.559397 101.071091,13.404863 
	C113.515144,13.966936 125.245140,14.421576 136.877502,15.214744 
	C130.694046,21.760136 131.911499,27.599035 137.256577,33.656860 
	C138.550980,35.123867 138.472656,37.802090 139.025558,39.923355 
	C138.860992,39.951488 138.696411,39.979626 138.284454,40.046753 
z"/>
<path fill="#6C8634" opacity="1.000000" stroke="none" 
	d="
M148.511368,43.943283 
	C152.189621,46.576290 155.773712,47.769516 160.292694,47.293610 
	C162.504669,47.060665 165.033173,48.982681 167.287872,50.176018 
	C172.648071,53.012981 177.930496,55.996937 183.640869,59.411018 
	C184.034042,62.268711 184.030670,64.636879 184.027298,67.005051 
	C175.121262,67.174294 167.302475,65.153465 162.066208,57.015224 
	C161.110825,55.530350 158.931412,54.484734 157.110062,53.973049 
	C152.352539,52.636494 148.784668,50.001541 146.230774,45.427971 
	C146.765732,44.766743 147.483673,44.375065 148.511368,43.943283 
z"/>
<path fill="#567236" opacity="1.000000" stroke="none" 
	d="
M87.474716,71.886185 
	C88.323174,69.665283 89.764214,67.563416 90.886162,65.303169 
	C91.733566,63.595989 93.269478,60.962254 92.621361,59.980785 
	C87.217369,51.797329 91.277367,45.641327 96.584961,39.319809 
	C98.964516,46.505077 101.251083,53.891983 103.240768,61.358009 
	C104.892982,67.557693 101.372597,71.900505 94.916275,71.989311 
	C92.588249,72.021324 90.258911,71.957329 87.474716,71.886185 
z"/>
<path fill="#5A7634" opacity="1.000000" stroke="none" 
	d="
M129.925476,51.868847 
	C136.147827,52.017357 140.573120,54.029896 142.106888,61.029686 
	C142.677872,63.635509 145.642242,65.977264 147.973343,67.877396 
	C151.680496,70.899178 155.731491,73.509697 159.711777,76.182899 
	C163.789627,78.921623 167.741776,81.990959 172.155579,84.039391 
	C175.528610,85.604790 177.360779,87.354790 177.002869,91.479401 
	C175.906708,92.222008 174.803864,92.562798 173.229950,92.564194 
	C164.848526,86.543739 157.145325,80.539055 148.954330,75.296539 
	C143.581100,71.857491 137.942719,69.310745 136.997467,61.895618 
	C136.523270,58.175636 133.836243,55.778507 130.000610,54.999660 
	C130.000610,54.999660 130.000000,55.000000 129.992432,54.606823 
	C129.954971,53.427837 129.925079,52.642033 129.895187,51.856224 
	C129.895187,51.856224 129.944672,51.857288 129.925476,51.868847 
z"/>
<path fill="#496130" opacity="1.000000" stroke="none" 
	d="
M119.153442,103.603378 
	C112.609482,106.448471 107.080696,104.152382 102.745804,99.303719 
	C98.934334,95.040466 94.457306,92.573738 89.055801,91.101692 
	C84.120979,89.756851 80.015106,87.055649 78.500534,81.500320 
	C80.206520,81.158401 81.595901,81.186897 83.047256,81.561325 
	C87.613083,89.603867 101.560776,89.493446 108.165337,81.708878 
	C109.772087,84.185638 111.378830,86.662407 112.822586,89.759384 
	C111.278580,92.618324 109.897568,94.857056 108.516548,97.095795 
	C111.083389,98.678230 113.624969,100.304688 116.238876,101.805145 
	C116.748451,102.097664 117.539093,101.900536 118.200096,101.929245 
	C118.488953,102.395287 118.777809,102.861328 119.153442,103.603378 
z"/>
<path fill="#789038" opacity="1.000000" stroke="none" 
	d="
M149.960464,14.147081 
	C151.304581,15.874591 152.480011,17.773680 154.027115,19.294722 
	C157.494720,22.703888 161.147186,25.925051 164.864166,29.514519 
	C158.288177,32.560295 151.572418,35.314323 144.319397,37.818913 
	C143.402084,35.057091 141.816879,31.738022 142.860641,30.178747 
	C146.451355,24.814533 145.172638,19.589689 144.377243,14.130475 
	C146.525253,14.113986 148.242859,14.130534 149.960464,14.147081 
z"/>
<path fill="#4D6C38" opacity="1.000000" stroke="none" 
	d="
M126.064468,94.585297 
	C126.045372,91.244194 127.708008,90.080551 130.692429,89.977509 
	C136.156982,89.788841 140.655365,91.355049 143.996826,95.923424 
	C145.734253,98.298790 147.812622,100.424782 149.932678,102.953781 
	C147.802597,104.340721 145.567627,105.731552 143.135086,106.482330 
	C133.256866,109.531136 130.555969,108.016830 127.383194,98.066231 
	C127.041695,96.995201 126.635826,95.944702 126.064468,94.585297 
z"/>
<path fill="#C09656" opacity="1.000000" stroke="none" 
	d="
M183.938644,117.023872 
	C175.201828,116.643486 168.278748,112.552551 162.140945,106.179001 
	C169.179291,102.967796 176.409393,100.040375 183.826691,97.909912 
	C183.988800,104.812538 183.963730,110.918205 183.938644,117.023872 
z"/>
<path fill="#567236" opacity="1.000000" stroke="none" 
	d="
M130.111374,55.347172 
	C133.836243,55.778507 136.523270,58.175636 136.997467,61.895618 
	C137.942719,69.310745 143.581100,71.857491 148.954330,75.296539 
	C157.145325,80.539055 164.848526,86.543739 172.880417,92.530586 
	C173.001984,92.836380 172.583862,92.972122 172.368317,93.015099 
	C165.954636,91.683243 160.303589,89.639938 155.267380,85.220947 
	C150.330261,80.888916 144.286728,77.790459 138.622543,74.324196 
	C134.912354,72.053703 133.007614,69.165710 132.839127,64.616516 
	C132.727936,61.614384 131.145706,58.666733 130.111374,55.347172 
z"/>
<path fill="#AA844E" opacity="1.000000" stroke="none" 
	d="
M147.092575,144.338043 
	C153.157211,140.524796 159.039078,139.570663 164.944839,144.368759 
	C166.141037,145.340576 168.267883,145.149750 169.499161,146.099655 
	C171.214523,147.423019 172.490433,149.316010 173.496872,151.385803 
	C165.630585,151.878754 158.221863,151.951096 150.813126,152.023438 
	C149.553528,149.581680 148.293945,147.139908 147.092575,144.338043 
z"/>
<path fill="#6C8634" opacity="1.000000" stroke="none" 
	d="
M143.946838,14.163513 
	C145.172638,19.589689 146.451355,24.814533 142.860641,30.178747 
	C141.816879,31.738022 143.402084,35.057091 143.954010,37.912254 
	C142.660278,38.850441 141.194687,39.445843 139.377335,39.982300 
	C138.472656,37.802090 138.550980,35.123867 137.256577,33.656860 
	C131.911499,27.599035 130.694046,21.760136 137.208649,15.015491 
	C139.740555,14.372979 141.843704,14.268246 143.946838,14.163513 
z"/>
<path fill="#7C9337" opacity="1.000000" stroke="none" 
	d="
M184.227814,49.113499 
	C174.651855,48.580196 172.902466,46.325905 174.460709,36.681267 
	C174.612442,35.742222 174.338257,34.734367 174.149719,33.431740 
	C175.969864,32.242222 177.888489,31.347195 179.837402,30.523890 
	C183.051178,29.166241 184.999161,29.916876 184.990829,33.743919 
	C184.980347,38.562054 184.960999,43.380169 184.737686,48.665199 
	C184.529877,49.132111 184.227814,49.113499 184.227814,49.113499 
z"/>
<path fill="#896F45" opacity="1.000000" stroke="none" 
	d="
M94.965416,139.033264 
	C95.450043,138.724182 95.934669,138.415085 96.734192,138.333801 
	C98.329216,140.196075 99.572784,141.860886 100.897552,143.458328 
	C103.237930,146.280441 105.627762,149.061523 107.531067,151.912323 
	C101.379044,151.909729 95.692848,151.854599 89.952797,151.454224 
	C88.573853,148.685410 87.248764,146.261826 85.923668,143.838242 
	C87.383224,142.972443 88.842773,142.106644 90.877907,141.003601 
	C91.973145,140.480957 92.492798,140.195541 93.012459,139.910126 
	C93.012459,139.910126 92.924561,139.979584 93.171844,139.873169 
	C93.934563,139.522263 94.449989,139.277771 94.965416,139.033264 
z"/>
<path fill="#AA844E" opacity="1.000000" stroke="none" 
	d="
M135.886581,138.619446 
	C132.022614,140.558456 128.651642,139.481674 125.929321,136.792572 
	C123.112061,134.009689 120.668236,130.848770 118.039032,127.496666 
	C119.134445,126.460678 120.259064,125.792717 121.368073,125.099785 
	C125.825165,122.314888 129.491150,123.331596 131.542053,127.981628 
	C133.044815,131.388870 134.476746,134.827347 135.886581,138.619446 
z"/>
<path fill="#4D6932" opacity="1.000000" stroke="none" 
	d="
M108.001083,81.463593 
	C101.560776,89.493446 87.613083,89.603867 83.514732,81.512291 
	C91.322014,81.067680 98.723793,81.018028 106.125580,80.968369 
	C106.695999,81.051682 107.266411,81.134987 108.001083,81.463593 
z"/>
<path fill="#5F7B35" opacity="1.000000" stroke="none" 
	d="
M106.879578,39.446873 
	C117.298782,38.867878 118.769669,39.603176 120.960754,46.466904 
	C114.402847,50.807037 111.133797,50.772823 108.243362,46.145664 
	C108.190369,45.075317 108.119949,44.547844 108.049530,44.020370 
	C107.672745,42.619473 107.295959,41.218571 106.879578,39.446873 
z"/>
<path fill="#937647" opacity="1.000000" stroke="none" 
	d="
M107.996895,151.859787 
	C105.627762,149.061523 103.237930,146.280441 100.897552,143.458328 
	C99.572784,141.860886 98.329216,140.196075 96.993851,138.199860 
	C97.143684,137.586456 97.348747,137.334778 97.925995,137.090271 
	C98.545418,137.059158 98.784653,136.987701 99.015877,136.883057 
	C99.015877,136.883057 98.938538,136.942490 98.910324,136.902649 
	C105.312714,140.102188 113.157455,141.840408 113.545174,151.488831 
	C111.423477,151.897781 109.710182,151.878784 107.996895,151.859787 
z"/>
<path fill="#8CA26A" opacity="1.000000" stroke="none" 
	d="
M144.377243,14.130474 
	C141.843704,14.268246 139.740555,14.372979 137.306274,14.676964 
	C125.245140,14.421576 113.515144,13.966936 101.416000,13.337013 
	C126.893425,13.161539 152.739990,13.161348 178.822998,13.522005 
	C169.674255,13.949550 160.289078,14.016247 150.432190,14.115013 
	C148.242859,14.130534 146.525253,14.113986 144.377243,14.130474 
z"/>
<path fill="#C5A36E" opacity="1.000000" stroke="none" 
	d="
M183.950912,117.471664 
	C183.963730,110.918205 183.988800,104.812538 184.024170,98.218796 
	C184.691467,100.672470 185.858429,103.604439 185.915070,106.557693 
	C186.132065,117.872635 186.072647,129.195435 185.927979,140.512894 
	C185.893005,143.248901 185.136459,145.975662 184.365509,148.934967 
	C184.008713,141.757782 183.998123,134.352310 183.972809,126.479675 
	C183.959793,123.314827 183.961487,120.617142 183.950912,117.471664 
z"/>
<path fill="#937647" opacity="1.000000" stroke="none" 
	d="
M85.565186,143.892151 
	C87.248764,146.261826 88.573853,148.685410 89.489136,151.511856 
	C84.089653,151.890091 79.099983,151.865463 74.110313,151.840836 
	C77.809105,149.209244 81.507904,146.577667 85.565186,143.892151 
z"/>
<path fill="#547236" opacity="1.000000" stroke="none" 
	d="
M92.105072,22.610016 
	C89.823944,22.315163 87.558975,21.324396 85.204285,21.013714 
	C81.861229,20.572626 79.565025,19.321404 79.048096,15.134314 
	C79.004395,14.526018 79.000557,14.050808 79.449516,14.003633 
	C82.608109,13.965941 85.317734,13.975425 88.027367,13.984908 
	C89.378639,16.729191 90.729912,19.473475 92.105072,22.610016 
z"/>
<path fill="#4D6932" opacity="1.000000" stroke="none" 
	d="
M118.112427,101.564987 
	C117.539093,101.900536 116.748451,102.097664 116.238876,101.805145 
	C113.624969,100.304688 111.083389,98.678230 108.516548,97.095795 
	C109.897568,94.857056 111.278580,92.618324 112.875488,90.104225 
	C114.735840,93.619484 116.380302,97.410103 118.112427,101.564987 
z"/>
<path fill="#8EA087" opacity="1.000000" stroke="none" 
	d="
M50.155182,112.331467 
	C50.175018,124.220924 50.138390,135.718155 50.056587,147.693542 
	C49.673828,147.491394 49.040623,146.810669 49.041580,146.130844 
	C49.070999,125.225273 49.162571,104.319794 49.618294,83.189758 
	C50.027611,92.623230 50.063164,102.281235 50.155182,112.331467 
z"/>
<path fill="#C1AC8F" opacity="1.000000" stroke="none" 
	d="
M74.211807,152.280640 
	C79.099983,151.865463 84.089653,151.890091 89.542984,151.857086 
	C95.692848,151.854599 101.379044,151.909729 107.531067,151.912323 
	C109.710182,151.878784 111.423477,151.897781 113.563568,151.868622 
	C122.737511,151.861221 131.484650,151.901962 140.711304,151.984222 
	C140.673630,152.345840 140.155899,152.946625 139.639313,152.945633 
	C117.863907,152.904190 96.088608,152.808990 74.211807,152.280640 
z"/>
<path fill="#4D6C38" opacity="1.000000" stroke="none" 
	d="
M58.997707,14.016943 
	C58.167454,16.184364 57.337200,18.351788 56.254044,20.760817 
	C54.348709,21.004030 52.696281,21.005638 50.589954,20.638624 
	C50.091331,19.770725 50.046612,19.271452 50.001888,18.772177 
	C51.420643,17.188904 52.839397,15.605630 54.608219,13.978013 
	C54.958286,13.933670 55.000477,13.961415 55.110847,14.009586 
	C55.221214,14.057757 55.568222,14.132595 55.568222,14.132595 
	C55.568222,14.132595 55.924404,14.122107 56.306038,14.064781 
	C57.457684,14.010617 58.227695,14.013781 58.997707,14.016943 
z"/>
<path fill="#8EA087" opacity="1.000000" stroke="none" 
	d="
M49.635624,19.030087 
	C50.046612,19.271452 50.091331,19.770725 50.177605,20.643597 
	C50.164429,37.082142 50.109707,53.147087 50.024658,69.690781 
	C49.663002,69.482796 49.041420,68.795425 49.042892,68.109406 
	C49.077785,51.835514 49.179691,35.561768 49.635624,19.030087 
z"/>
<path fill="#8CA26A" opacity="1.000000" stroke="none" 
	d="
M184.192688,49.556274 
	C184.227814,49.113499 184.529877,49.132111 184.681213,49.139481 
	C184.804016,61.976700 184.775482,74.806549 184.383820,87.884415 
	C184.042435,86.704659 184.064178,85.276901 184.054749,83.421471 
	C184.040833,77.974709 184.058105,72.955605 184.051331,67.470779 
	C184.030670,64.636879 184.034042,62.268711 184.010803,59.458729 
	C184.041992,56.010963 184.099792,53.005009 184.192688,49.556274 
z"/>
<path fill="#8EA087" opacity="1.000000" stroke="none" 
	d="
M105.902313,80.586227 
	C98.723793,81.018028 91.322014,81.067680 83.452759,81.166367 
	C81.595901,81.186897 80.206520,81.158401 78.401993,81.174911 
	C76.610573,81.150543 75.234291,81.081161 73.432892,80.764275 
	C73.007767,80.516777 73.061569,80.103241 73.061569,80.103241 
	C83.934059,80.136856 94.806557,80.170471 105.902313,80.586227 
z"/>
<path fill="#8CA26A" opacity="1.000000" stroke="none" 
	d="
M59.460770,13.970501 
	C58.227695,14.013781 57.457684,14.010617 56.076614,14.016781 
	C55.465557,14.026107 55.000477,13.961415 55.000477,13.961415 
	C55.000477,13.961415 54.958286,13.933670 54.949409,13.956457 
	C55.621132,13.661265 56.302059,13.066072 56.982273,13.066888 
	C67.180031,13.079092 77.377686,13.169864 87.801369,13.613525 
	C85.317734,13.975425 82.608109,13.965941 79.021210,13.964497 
	C76.426842,13.979678 74.709740,13.986820 72.992630,13.993963 
	C68.636360,13.970661 64.280098,13.947360 59.460770,13.970501 
z"/>
<path fill="#567236" opacity="1.000000" stroke="none" 
	d="
M80.515991,70.883987 
	C81.217010,71.071793 81.439728,71.296928 81.799316,71.717812 
	C71.473991,71.844704 61.000134,71.787392 50.285530,71.377663 
	C60.046307,70.986755 70.047829,70.948257 80.515991,70.883987 
z"/>
<path fill="#C1AC8F" opacity="1.000000" stroke="none" 
	d="
M151.044556,152.406586 
	C158.221863,151.951096 165.630585,151.878754 173.503784,151.762329 
	C175.756729,151.793823 177.545227,151.869354 179.782104,151.979095 
	C178.711105,152.351501 177.192490,152.976059 175.672195,152.980164 
	C167.540344,153.002090 159.408112,152.869141 151.044556,152.406586 
z"/>
<path fill="#567236" opacity="1.000000" stroke="none" 
	d="
M154.118256,97.291382 
	C156.177780,97.270638 158.354797,97.538666 160.855209,97.941162 
	C159.673553,98.970100 158.168472,99.864578 156.333954,100.816940 
	C155.414902,99.776604 154.825333,98.678383 154.118256,97.291382 
z"/>
<path fill="#3C5732" opacity="1.000000" stroke="none" 
	d="
M64.443558,82.010422 
	C64.006844,82.012085 64.001457,81.608398 63.999550,81.406586 
	C66.064911,80.832405 68.132179,80.460045 70.599503,80.436981 
	C70.999298,81.189980 70.999039,81.593689 70.998779,81.997391 
	C68.959282,82.001183 66.919777,82.004967 64.443558,82.010422 
z"/>
<path fill="#567236" opacity="1.000000" stroke="none" 
	d="
M129.617126,51.921265 
	C129.925079,52.642033 129.954971,53.427837 129.992737,54.606636 
	C129.404846,54.464138 128.809067,53.928650 128.079773,53.116737 
	C128.410538,52.555645 128.874802,52.270973 129.617126,51.921265 
z"/>
<path fill="#658037" opacity="1.000000" stroke="none" 
	d="
M100.826706,20.451586 
	C101.154335,21.195950 101.507500,22.308567 101.859604,23.783173 
	C101.523102,23.036722 101.187668,21.928280 100.826706,20.451586 
z"/>
<path fill="#3E5930" opacity="1.000000" stroke="none" 
	d="
M71.271049,81.900780 
	C70.999039,81.593689 70.999298,81.189980 70.999466,80.483513 
	C71.457352,80.142532 71.915329,80.104309 72.717438,80.084671 
	C73.061569,80.103241 73.007767,80.516777 73.021011,80.724831 
	C72.537277,81.223312 72.040298,81.513733 71.271049,81.900780 
z"/>
<path fill="#547236" opacity="1.000000" stroke="none" 
	d="
M92.946442,25.620903 
	C92.635201,25.151262 92.372208,24.345465 92.089859,23.217247 
	C92.378555,23.691465 92.686623,24.488104 92.946442,25.620903 
z"/>
<path fill="#937647" opacity="1.000000" stroke="none" 
	d="
M94.656601,138.985840 
	C94.449989,139.277771 93.934563,139.522263 93.137146,139.829208 
	C93.352692,139.573898 93.850235,139.256149 94.656601,138.985840 
z"/>
<path fill="#937647" opacity="1.000000" stroke="none" 
	d="
M92.688034,139.906128 
	C92.492798,140.195541 91.973145,140.480957 91.167305,140.854538 
	C91.375290,140.595856 91.869446,140.248993 92.688034,139.906128 
z"/>
<path fill="#658037" opacity="1.000000" stroke="none" 
	d="
M107.995781,44.344387 
	C108.119949,44.547844 108.190369,45.075317 108.158615,45.787476 
	C108.018303,45.537575 107.980164,45.102989 107.995781,44.344387 
z"/>
<path fill="#9C7C4A" opacity="1.000000" stroke="none" 
	d="
M98.771301,136.909393 
	C98.784653,136.987701 98.545418,137.059158 98.177856,137.090591 
	C98.057541,137.083755 98.526726,136.935715 98.771301,136.909393 
z"/>
<path fill="#435D31" opacity="1.000000" stroke="none" 
	d="
M73.226936,14.155220 
	C74.709740,13.986820 76.426842,13.979678 78.572250,14.011671 
	C79.000557,14.050808 79.004395,14.526018 79.001587,14.763630 
	C77.934860,15.004873 76.870941,15.008506 75.408386,15.018084 
	C74.493584,14.788177 73.977417,14.552326 73.226936,14.155220 
z"/>
<path fill="#435D31" opacity="1.000000" stroke="none" 
	d="
M55.110847,14.009586 
	C55.000477,13.961415 55.465557,14.026107 55.694981,14.074106 
	C55.924404,14.122107 55.568222,14.132595 55.568222,14.132595 
	C55.568222,14.132595 55.221214,14.057757 55.110847,14.009586 
z"/>
</svg>