<svg xmlns="http://www.w3.org/2000/svg" viewBox="0 0 140 36" role="img" aria-label="iyzico">
  <path fill="#1E64FF" d="M6.8 26.5c-3.6 0-5.9-2.3-5.9-5.8 0-3.7 2.4-6 6.3-6h3.9v2.2h-3.6c-2.1 0-3.3 1.1-3.3 3.5s1.2 3.5 3.3 3.5c1.4 0 2.4-.5 3.2-1.3l1.7 1.6c-1.1 1.3-2.8 2-4.9 2zm9.2 0V9.5h2.6v17h-2.6zm13.2-10.8c2.4 0 4 1.4 4 4.2v6.6h-2.4V20.2c0-1.7-.8-2.6-2.3-2.6-1.6 0-2.6 1.1-2.6 3v6h-2.4V9.5h2.3v1.9c.8-1.2 2.2-1.9 3.8-1.9zm10.8 10.8c-2.9 0-4.8-1.9-4.8-5.1 0-3.2 1.9-5.2 4.8-5.2s4.8 2 4.8 5.2c0 3.3-1.9 5.1-4.8 5.1zm0-2c1.6 0 2.4-1.2 2.4-3.1 0-1.9-.8-3.1-2.4-3.1s-2.5 1.2-2.5 3.1c0 1.9.9 3.1 2.5 3.1zm11.2 2l-2.2-5.9-2.2 5.9h-2.5l3.6-9.6h2.4l3.6 9.6h-2.7zm11.5 0c-2.2 0-3.7-1.1-4.3-2.9l2.2-.9c.4 1.1 1.2 1.7 2.3 1.7 1.1 0 1.7-.4 1.7-1.2 0-.7-.5-1-1.9-1.3l-1.2-.3c-1.9-.4-2.9-1.3-2.9-3 0-1.9 1.6-3.2 4-3.2 2 0 3.5 1 4.1 2.7l-2.2.8c-.3-.8-1-1.4-2.1-1.4-.9 0-1.6.4-1.6 1.1 0 .7.5 1 1.8 1.2l1.3.3c2.1.5 3.1 1.4 3.1 3.1 0 2.1-1.7 3.4-4.3 3.4z"/>
  <circle fill="#1E64FF" cx="3.4" cy="7.2" r="2.2"/>
</svg>
