<svg xmlns="http://www.w3.org/2000/svg" viewBox="0 0 120 40" role="img" aria-label="Troy">
  <rect width="120" height="40" rx="6" fill="#00A4D2"/>
  <path fill="#fff" d="M18.2 27.5V12.5h5.2c3.4 0 5.6 1.8 5.6 4.6 0 2.2-1.3 3.6-3.2 4.2 2.4.5 3.8 2.2 3.8 4.6 0 3.2-2.4 5.6-6.6 5.6h-4.8zm4.6-8.8h1.8c1.4 0 2.2-.7 2.2-1.8 0-1.1-.8-1.8-2.2-1.8h-1.8v3.6zm0 6.8h2.2c1.6 0 2.5-.8 2.5-2 0-1.2-.9-2-2.5-2h-2.2v4zM36.5 27.5l-3.4-5.2-3.4 5.2h-4.4l5.8-8.5-5.4-7.8h4.4l3 4.6 3-4.6h4.4l-5.4 7.6 5.8 8.7h-4.4zm18.2 0V12.5h4.1v15h-4.1zm14.8 0l-6.8-15h4.3l4.2 10.2 4.2-10.2h4.2l-6.8 15h-3.3zm22.5 0V12.5h7.8c3.4 0 5.6 1.7 5.6 4.5 0 2-1.1 3.4-2.9 4.1 2.2.7 3.5 2.2 3.5 4.4 0 2.9-2.2 4.9-5.8 4.9h-8.2zm4.1-8.3h3c1.3 0 2-.6 2-1.6 0-1-.7-1.6-2-1.6h-3v3.2zm0 6.4h3.2c1.4 0 2.2-.7 2.2-1.7 0-1-.8-1.7-2.2-1.7h-3.2v3.4z"/>
</svg>
