<svg xmlns="http://www.w3.org/2000/svg" viewBox="0 0 780 500" role="img" aria-label="Visa">
  <path fill="#1434CB" d="M278.4 173.8h-46.5l-28.8 152.4h46.5l28.8-152.4zm206.2 99.3c0-38.5-53.3-40.7-52.9-57.9 0-5.2 5.1-10.8 15.9-12.2 5.4-.7 20.3-1.2 37.2 4.8l6.6-30.8c-9.1-3.3-20.8-6.5-35.3-6.5-37.3 0-63.6 19.8-63.8 48.2-.2 21 18.8 32.7 33.2 39.7 14.8 7.1 19.8 11.7 19.7 18.1-.1 9.8-11.8 14.2-22.7 14.4-19 .3-30-5.1-38.8-9.2l-6.8 31.7c8.8 4 25.2 7.5 42.2 7.7 39.6.4 65.5-19.5 65.7-49.7zm120.1-99.3h-36c-11 0-19.2 3-24 13.9l-67.5 138.5h46.9l9.4-25.9h57.3l4.1 1.7 2.7-15h-41.4l33.5-152.4zm-62.5 98.5l1.7-4.6.9 4.6h-2.6zm-162.1-98.5l-36.3 152.4h44.5l36.3-152.4h-44.5zM89 173.8L52.5 295.7c-1.3 5.2-2.1 7.1-5.5 9.3-5.5 3.5-14.6 6.8-22.7 8.8l41.1 11.9L89 173.8z"/>
</svg>
